<svg width="48" height="48" viewBox="0 0 48 48" fill="none" xmlns="http://www.w3.org/2000/svg">
<rect x="7.8623" y="12.8271" width="26.7826" height="18.4708" rx="2.48276" stroke="#E13D74" stroke-width="1.65517"/>
<rect x="13.1728" y="19.061" width="26.3208" height="18.009" rx="2.25187" fill="#E13D74" stroke="#E13D74" stroke-width="0.461769"/>
<path fill-rule="evenodd" clip-rule="evenodd" d="M31.0788 30.7541C30.7565 31.0782 30.232 31.0782 29.9097 30.7541C29.59 30.4326 29.59 29.9132 29.9097 29.5917L30.8162 28.68C31.1371 28.3572 31.1371 27.8358 30.8162 27.513L29.8928 26.5843C29.5731 26.2628 29.5731 25.7434 29.8928 25.4219C30.2151 25.0977 30.7396 25.0977 31.0619 25.4219L33.141 27.513C33.462 27.8358 33.462 28.3572 33.141 28.68L31.0788 30.7541ZM22.7558 30.7541C22.4335 31.0782 21.909 31.0782 21.5867 30.7541L19.5244 28.68C19.2034 28.3572 19.2035 27.8358 19.5244 27.513L21.6036 25.4219C21.9259 25.0977 22.4504 25.0978 22.7727 25.4219C23.0924 25.7434 23.0924 26.2628 22.7727 26.5843L21.8493 27.513C21.5284 27.8358 21.5284 28.3572 21.8493 28.68L22.7558 29.5917C23.0754 29.9132 23.0754 30.4326 22.7558 30.7541ZM24.8577 30.3616C24.7315 30.8592 25.1076 31.3427 25.621 31.3427C25.9824 31.3427 26.2973 31.0967 26.385 30.7462L27.621 25.8014C27.7439 25.31 27.3722 24.834 26.8657 24.834C26.5094 24.834 26.1986 25.0758 26.111 25.4211L24.8577 30.3616Z" fill="#F3BFC3"/>
<circle cx="11.3797" cy="16.3441" r="0.803598" fill="#E13D74" stroke="#E13D74" stroke-width="0.461769"/>
<circle cx="14.2762" cy="16.3441" r="0.803598" fill="#E13D74" stroke="#E13D74" stroke-width="0.461769"/>
<circle cx="17.1727" cy="16.3441" r="0.803598" fill="#E13D74" stroke="#E13D74" stroke-width="0.461769"/>
<path d="M2.89722 28.1371V40.2061C2.89722 41.3106 3.79265 42.2061 4.89722 42.2061H16.9662" stroke="#F3BFC3" stroke-width="1.24138" stroke-linecap="round" stroke-linejoin="round"/>
<path fill-rule="evenodd" clip-rule="evenodd" d="M19.0353 44.2746C17.8926 44.2746 16.9663 43.3483 16.9663 42.2057C16.9663 41.063 17.8926 40.1367 19.0353 40.1367C20.1779 40.1367 21.1042 41.063 21.1042 42.2057C21.1042 43.3483 20.1779 44.2746 19.0353 44.2746Z" stroke="#F3BFC3" stroke-width="1.24138"/>
<path fill-rule="evenodd" clip-rule="evenodd" d="M2.89734 28.137C1.75469 28.137 0.828378 27.2106 0.828378 26.068C0.828378 24.9253 1.75469 23.999 2.89734 23.999C4.04 23.999 4.96631 24.9253 4.96631 26.068C4.96631 27.2106 4.04 28.137 2.89734 28.137Z" stroke="#F3BFC3" stroke-width="1.24138"/>
<path d="M45.1035 19.861V7.79199C45.1035 6.68742 44.2081 5.79199 43.1035 5.79199H31.0345" stroke="#F3BFC3" stroke-width="1.24138" stroke-linecap="round" stroke-linejoin="round"/>
<path fill-rule="evenodd" clip-rule="evenodd" d="M28.9654 3.7234C30.1081 3.7234 31.0344 4.6497 31.0344 5.79236C31.0344 6.93502 30.1081 7.86133 28.9654 7.86133C27.8228 7.86133 26.8965 6.93502 26.8965 5.79236C26.8965 4.6497 27.8228 3.7234 28.9654 3.7234Z" stroke="#F3BFC3" stroke-width="1.24138"/>
<path fill-rule="evenodd" clip-rule="evenodd" d="M45.1034 19.8611C46.246 19.8611 47.1724 20.7874 47.1724 21.9301C47.1724 23.0727 46.246 23.999 45.1034 23.999C43.9607 23.999 43.0344 23.0727 43.0344 21.9301C43.0344 20.7874 43.9607 19.8611 45.1034 19.8611Z" stroke="#F3BFC3" stroke-width="1.24138"/>
<rect opacity="0.1" x="46.5618" y="40.1377" width="4.29557" height="4.29557" rx="1.65517" transform="rotate(90 46.5618 40.1377)" fill="#F3BFC3"/>
<rect opacity="0.4" x="41.0249" y="40.1377" width="4.29557" height="4.29557" rx="1.65517" transform="rotate(90 41.0249 40.1377)" fill="#F3BFC3"/>
<rect opacity="0.7" x="35.488" y="40.1377" width="4.29557" height="4.29557" rx="1.65517" transform="rotate(90 35.488 40.1377)" fill="#F3BFC3"/>
<rect x="29.9509" y="40.1377" width="4.29557" height="4.29557" rx="1.65517" transform="rotate(90 29.9509 40.1377)" fill="#F3BFC3"/>
<rect opacity="0.1" width="4.29557" height="4.29557" rx="1.65517" transform="matrix(0 1 1 0 0.828857 3.72266)" fill="#F3BFC3"/>
<rect opacity="0.4" width="4.29557" height="4.29557" rx="1.65517" transform="matrix(0 1 1 0 6.36572 3.72266)" fill="#F3BFC3"/>
<rect opacity="0.7" width="4.29557" height="4.29557" rx="1.65517" transform="matrix(0 1 1 0 11.9026 3.72266)" fill="#F3BFC3"/>
<rect width="4.29557" height="4.29557" rx="1.65517" transform="matrix(0 1 1 0 17.4397 3.72266)" fill="#F3BFC3"/>
</svg>
