<svg width="42" height="32" viewBox="0 0 42 32" fill="none" xmlns="http://www.w3.org/2000/svg">
<path d="M24.0745 29.0352C24.0795 30.2917 25.0997 31.3066 26.3551 31.3066H26.3644L39.4336 31.2538C40.6932 31.2486 41.7102 30.2235 41.7051 28.9639L41.6522 15.8945C41.6496 15.2896 41.407 14.7106 40.9777 14.2845C40.5505 13.8607 39.9732 13.6231 39.3716 13.6231H39.3624L28.5736 13.6668L28.5595 10.1752C28.554 8.8352 29.0707 7.57346 30.0144 6.6221C30.958 5.67075 32.2156 5.14384 33.5555 5.13854C34.8151 5.13338 35.8321 4.10822 35.827 2.84863C35.822 1.59205 34.8018 0.577219 33.5464 0.577219H33.5371C30.9788 0.587679 28.5777 1.59363 26.7758 3.40994C24.9741 5.22624 23.9877 7.63551 23.998 10.1938L24.0215 15.9661L24.0745 29.0352Z" fill="white" fill-opacity="0.8"/>
<path d="M0.296743 16.0625L0.349764 29.1319C0.354778 30.3883 1.37492 31.4033 2.63035 31.4033H2.63967L15.709 31.3504C16.3139 31.348 16.893 31.1054 17.319 30.6759C17.745 30.2465 17.9829 29.6654 17.9805 29.0605L17.9274 15.9912C17.9224 14.7347 16.9023 13.7198 15.6468 13.7198H15.6375L4.84875 13.7635L4.83457 10.272C4.82339 7.50592 7.06472 5.2464 9.83066 5.23522C11.0902 5.23006 12.1072 4.20491 12.1021 2.94532C12.0971 1.68874 11.0769 0.673899 9.82149 0.673899H9.81217C4.53106 0.695393 0.25189 5.00924 0.273098 10.2905L0.296743 16.0625Z" fill="white" fill-opacity="0.8"/>
</svg>
